<svg width="435" height="365" viewBox="0 0 435 365" fill="none" xmlns="http://www.w3.org/2000/svg">
<path d="M166 29.4999C165 36.4998 165 36.4998 165 36.4998C165 36.4998 165 39 167 48.5C167 48.5 169.5 61.7923 177.731 67.6628L241.271 62.9073C241.271 62.9073 249.803 12.3349 225.615 3.06988C201.427 -6.19516 170 13 168 21.5C167 24 166.72 24.4576 166 29.4999Z" fill="#35174D"/>
<path d="M434.478 263.787C431.744 292.106 373.804 291.418 365.125 291.418C356.462 291.418 351.794 287.335 351.794 287.335L354.415 304.668L358.771 333.447H299.079C299.079 333.447 128.88 179.352 128.88 155.951C128.88 132.567 141.359 123.811 151.299 122.843C161.223 121.876 209.452 109.495 210.189 105.609C210.909 101.722 208.944 92.3915 208.944 92.3915C180.138 95.0481 177.583 66.7938 177.583 66.7938C171.229 54.8558 170.705 36.1453 182.365 41.852C194.025 47.5586 210.058 41.4584 212.432 38.1295C214.823 34.8171 220.26 32.9641 220.915 33.7512C221.586 34.5547 220.915 41.3108 220.915 41.3108L226.483 42.2455C226.483 42.2455 228.334 50.871 228.465 53.5276C228.596 56.1841 230.593 56.7088 231.511 56.7088C232.444 56.7088 233.77 44.0985 233.77 44.0985C233.77 44.0985 244.759 42.2455 244.759 53.5276C244.759 64.8096 235.228 65.5967 235.228 65.5967C237.193 85.947 245.398 95.1793 253.602 99.41C253.602 99.41 253.602 99.41 253.602 99.4264C262.167 103.854 270.765 102.821 272.271 103.296C275.235 104.215 304.68 102.493 304.68 102.493C337.76 99.984 353.956 128.091 356.92 131.731C359.884 135.388 376.31 155.263 401.857 184.96C427.42 214.657 437.23 235.45 434.478 263.787Z" fill="#6246EA"/>
<path d="M235.146 120.974C214.856 123.302 210.189 105.609 210.189 105.609C210.909 101.722 208.944 92.3915 208.944 92.3915C180.138 95.0481 177.583 66.7938 177.583 66.7938C171.229 54.8558 170.705 36.1453 182.365 41.852C194.025 47.5586 210.058 41.4584 212.432 38.1295C214.823 34.8171 220.26 32.9641 220.915 33.7512C221.586 34.5547 220.915 41.3108 220.915 41.3108L226.483 42.2455C226.483 42.2455 228.334 50.871 228.465 53.5276C228.596 56.1841 230.593 56.7088 231.511 56.7088C232.444 56.7088 233.77 44.0985 233.77 44.0985C233.77 44.0985 244.759 42.2455 244.759 53.5276C244.759 64.8096 235.228 65.5967 235.228 65.5967C237.193 85.947 245.398 95.1793 253.602 99.41C253.602 99.41 253.602 99.41 253.602 99.4264C253.668 100.099 255.076 118.694 235.146 120.974Z" fill="#DD6B66"/>
<path d="M354.415 304.668C354.415 304.668 332.389 302.159 322.645 298.633C312.917 295.107 294.265 292.09 294.265 292.09V263.36L352.499 283.481L352.089 289.253L354.415 304.668Z" fill="#37164D"/>
<path d="M349.977 240.075C347.995 238.73 347.962 235.729 349.862 234.253C350.828 233.499 352.04 232.892 353.514 232.679C357.886 232.056 374.525 231.17 379.552 230.908C380.535 230.859 381.255 231.63 382.205 231.843C385.775 232.679 391.048 240.534 391.327 248.192C391.704 257.982 392.883 289.024 388.412 290.319C384.498 291.451 363.094 292.926 355.627 289.63C354.267 289.04 353.399 287.695 353.399 286.219C353.432 278.643 353.596 248.848 353.498 246.158C353.432 244.24 352.138 241.567 349.977 240.075Z" fill="#35174D"/>
<path d="M353.498 233.515C353.285 233.515 353.072 233.433 352.908 233.269L331.684 211.279C331.373 210.951 331.373 210.427 331.701 210.115C332.028 209.803 332.552 209.803 332.863 210.131L354.087 232.122C354.398 232.449 354.398 232.974 354.071 233.286C353.907 233.433 353.694 233.515 353.498 233.515Z" fill="#35164B"/>
<path d="M303.861 154.656H33.0788V333.447H303.861V154.656Z" fill="#3A3A47"/>
<path d="M303.861 154.656H33.0788V168.742H303.861V154.656Z" fill="#FFBB4E"/>
<path d="M145.813 208.098H113.306C112.406 208.098 111.669 207.36 111.669 206.458C111.669 205.556 112.406 204.818 113.306 204.818H145.813C146.714 204.818 147.451 205.556 147.451 206.458C147.451 207.36 146.714 208.098 145.813 208.098Z" fill="#E5E6ED"/>
<path d="M154.395 218.577H121.904C121.003 218.577 120.266 217.839 120.266 216.937C120.266 216.035 121.003 215.297 121.904 215.297H154.411C155.312 215.297 156.049 216.035 156.049 216.937C156.049 217.839 155.312 218.577 154.395 218.577Z" fill="#E5E6ED"/>
<path d="M139.967 262.836H119.153C118.252 262.836 117.515 262.098 117.515 261.196C117.515 260.294 118.252 259.556 119.153 259.556H139.967C140.868 259.556 141.605 260.294 141.605 261.196C141.605 262.098 140.884 262.836 139.967 262.836Z" fill="#E5E6ED"/>
<path d="M160.175 274.937H119.153C118.252 274.937 117.515 274.2 117.515 273.298C117.515 272.396 118.252 271.658 119.153 271.658H160.175C161.076 271.658 161.813 272.396 161.813 273.298C161.813 274.2 161.076 274.937 160.175 274.937Z" fill="#E5E6ED"/>
<path d="M190.357 287.039H128.716C127.816 287.039 127.079 286.301 127.079 285.4C127.079 284.498 127.816 283.76 128.716 283.76H190.357C191.258 283.76 191.995 284.498 191.995 285.4C191.995 286.301 191.258 287.039 190.357 287.039Z" fill="#E5E6ED"/>
<path d="M171.753 299.141H135.676C134.776 299.141 134.039 298.403 134.039 297.502C134.039 296.6 134.776 295.862 135.676 295.862H171.753C172.654 295.862 173.391 296.6 173.391 297.502C173.391 298.403 172.654 299.141 171.753 299.141Z" fill="#E5E6ED"/>
<path d="M163.844 312.801H127.767C126.866 312.801 126.129 312.063 126.129 311.161C126.129 310.259 126.866 309.521 127.767 309.521H163.844C164.744 309.521 165.481 310.259 165.481 311.161C165.481 312.063 164.761 312.801 163.844 312.801Z" fill="#E5E6ED"/>
<path d="M235.539 312.801H199.462C198.561 312.801 197.824 312.063 197.824 311.161C197.824 310.259 198.561 309.521 199.462 309.521H235.539C236.44 309.521 237.177 310.259 237.177 311.161C237.177 312.063 236.44 312.801 235.539 312.801Z" fill="#E5E6ED"/>
<path d="M217.492 299.141H181.415C180.515 299.141 179.778 298.403 179.778 297.502C179.778 296.6 180.515 295.862 181.415 295.862H217.492C218.393 295.862 219.13 296.6 219.13 297.502C219.13 298.403 218.393 299.141 217.492 299.141Z" fill="#BB7FEF"/>
<path d="M224.665 195.799H188.588C187.688 195.799 186.951 195.061 186.951 194.159C186.951 193.258 187.688 192.52 188.588 192.52H224.665C225.566 192.52 226.303 193.258 226.303 194.159C226.303 195.061 225.566 195.799 224.665 195.799Z" fill="#BB7FEF"/>
<path d="M213.382 287.039H199.871C198.971 287.039 198.234 286.301 198.234 285.4C198.234 284.498 198.971 283.76 199.871 283.76H213.382C214.283 283.76 215.02 284.498 215.02 285.4C215.02 286.301 214.299 287.039 213.382 287.039Z" fill="#11BDED"/>
<path d="M187.589 312.801H174.079C173.178 312.801 172.441 312.063 172.441 311.161C172.441 310.259 173.178 309.521 174.079 309.521H187.589C188.49 309.521 189.227 310.259 189.227 311.161C189.227 312.063 188.49 312.801 187.589 312.801Z" fill="#11BDED"/>
<path d="M245.463 274.937H171.753C170.853 274.937 170.116 274.2 170.116 273.298C170.116 272.396 170.853 271.658 171.753 271.658H245.463C246.364 271.658 247.101 272.396 247.101 273.298C247.101 274.2 246.364 274.937 245.463 274.937Z" fill="#E5E6ED"/>
<path d="M170.771 229.367H138.28C137.38 229.367 136.643 228.629 136.643 227.727C136.643 226.825 137.38 226.087 138.28 226.087H170.787C171.688 226.087 172.425 226.825 172.425 227.727C172.425 228.629 171.688 229.367 170.771 229.367Z" fill="#E5E6ED"/>
<path d="M267.063 195.799H234.557C233.656 195.799 232.919 195.061 232.919 194.159C232.919 193.258 233.656 192.52 234.557 192.52H267.063C267.964 192.52 268.701 193.258 268.701 194.159C268.701 195.061 267.981 195.799 267.063 195.799Z" fill="#E5E6ED"/>
<path d="M160.175 240.386H138.28C137.38 240.386 136.643 239.648 136.643 238.746C136.643 237.845 137.38 237.107 138.28 237.107H160.175C161.076 237.107 161.813 237.845 161.813 238.746C161.813 239.648 161.076 240.386 160.175 240.386Z" fill="#E5E6ED"/>
<path d="M208.616 250.717H138.28C137.38 250.717 136.643 249.979 136.643 249.077C136.643 248.175 137.38 247.438 138.28 247.438H208.633C209.534 247.438 210.27 248.175 210.27 249.077C210.27 249.979 209.534 250.717 208.616 250.717Z" fill="#E5E6ED"/>
<path d="M237.144 208.098H185.198C184.298 208.098 183.561 207.36 183.561 206.458C183.561 205.556 184.298 204.818 185.198 204.818H237.144C238.045 204.818 238.782 205.556 238.782 206.458C238.782 207.36 238.045 208.098 237.144 208.098Z" fill="#E5E6ED"/>
<path d="M291.088 208.098H245.463C244.562 208.098 243.826 207.36 243.826 206.458C243.826 205.556 244.562 204.818 245.463 204.818H291.088C291.988 204.818 292.725 205.556 292.725 206.458C292.725 207.36 291.988 208.098 291.088 208.098Z" fill="#11BDED"/>
<path d="M201.132 323.165H155.508C154.607 323.165 153.87 322.427 153.87 321.525C153.87 320.623 154.607 319.885 155.508 319.885H201.132C202.033 319.885 202.77 320.623 202.77 321.525C202.77 322.427 202.033 323.165 201.132 323.165Z" fill="#11BDED"/>
<path d="M176.109 208.262H156.867C155.967 208.262 155.23 207.524 155.23 206.622C155.23 205.72 155.967 204.982 156.867 204.982H176.109C177.01 204.982 177.747 205.72 177.747 206.622C177.747 207.524 177.027 208.262 176.109 208.262Z" fill="#F39695"/>
<path d="M200.068 229.367H180.826C179.925 229.367 179.188 228.629 179.188 227.727C179.188 226.825 179.925 226.087 180.826 226.087H200.068C200.969 226.087 201.706 226.825 201.706 227.727C201.706 228.629 200.969 229.367 200.068 229.367Z" fill="#F39695"/>
<path d="M224.6 240.386H168.707C167.807 240.386 167.07 239.648 167.07 238.746C167.07 237.845 167.807 237.107 168.707 237.107H224.6C225.5 237.107 226.237 237.845 226.237 238.746C226.237 239.648 225.5 240.386 224.6 240.386Z" fill="#F39695"/>
<path d="M284.308 240.386H258.646C257.745 240.386 257.008 239.648 257.008 238.746C257.008 237.845 257.745 237.107 258.646 237.107H284.308C285.208 237.107 285.945 237.845 285.945 238.746C285.945 239.648 285.208 240.386 284.308 240.386Z" fill="#F39695"/>
<path d="M250.818 240.386H230.692C229.791 240.386 229.054 239.648 229.054 238.746C229.054 237.845 229.791 237.107 230.692 237.107H250.818C251.719 237.107 252.456 237.845 252.456 238.746C252.456 239.648 251.719 240.386 250.818 240.386Z" fill="#FFBB4E"/>
<path d="M148.221 323.165H128.078C127.177 323.165 126.44 322.427 126.44 321.525C126.44 320.623 127.177 319.885 128.078 319.885H148.204C149.105 319.885 149.842 320.623 149.842 321.525C149.842 322.427 149.121 323.165 148.221 323.165Z" fill="#FFBB4E"/>
<path d="M203.949 185.14H183.823C182.922 185.14 182.185 184.402 182.185 183.501C182.185 182.599 182.922 181.861 183.823 181.861H203.949C204.85 181.861 205.587 182.599 205.587 183.501C205.587 184.402 204.866 185.14 203.949 185.14Z" fill="#FFBB4E"/>
<path d="M99.7795 154.64H33.0788V333.43H99.7795V154.64Z" fill="#1C1A23"/>
<path d="M99.7795 214.264H33.0788V227.727H99.7795V214.264Z" fill="black"/>
<path d="M47.8339 201.407H39.9405V209.311H47.8339V201.407Z" fill="#62687E"/>
<path d="M55.3997 216.937H47.5063V224.841H55.3997V216.937Z" fill="#62687E"/>
<path d="M66.9778 230.842H59.0844V238.746H66.9778V230.842Z" fill="#62687E"/>
<path d="M66.9778 244.043H59.0844V251.947H66.9778V244.043Z" fill="#62687E"/>
<path d="M66.9778 257.244H59.0844V265.148H66.9778V257.244Z" fill="#62687E"/>
<path d="M66.9778 270.444H59.0844V278.348H66.9778V270.444Z" fill="#62687E"/>
<path d="M66.9778 283.645H59.0844V291.549H66.9778V283.645Z" fill="#62687E"/>
<path d="M192.257 114.349V193.782H25.2673V114.349C25.2673 107.79 30.5732 102.476 37.1238 102.476H180.4C186.951 102.476 192.257 107.79 192.257 114.349Z" fill="#D9DEF1"/>
<path d="M192.257 114.349V131.288H25.2673V114.349C25.2673 107.79 30.5732 102.476 37.1238 102.476H180.4C186.951 102.476 192.257 107.79 192.257 114.349Z" fill="#33184B"/>
<path d="M93.7858 142.472H56.0875C55.4325 142.472 54.9084 142.997 54.9084 143.653V181.402C54.9084 182.057 55.4325 182.582 56.0875 182.582H93.7858C94.4408 182.582 94.9649 182.057 94.9649 181.402V143.636C94.9649 142.997 94.4408 142.472 93.7858 142.472ZM92.6231 144.817V151.95H57.2666V144.817H92.6231ZM57.2666 180.204V154.279H92.6231V180.204H57.2666Z" fill="white"/>
<path d="M65.553 168.381H77.2785C77.9335 168.381 78.4576 167.857 78.4576 167.201C78.4576 166.545 77.9335 166.02 77.2785 166.02H65.553C64.898 166.02 64.3739 166.545 64.3739 167.201C64.3903 167.857 64.9143 168.381 65.553 168.381Z" fill="white"/>
<path d="M65.553 173.088H74.9366C75.5917 173.088 76.1157 172.563 76.1157 171.907C76.1157 171.251 75.5917 170.726 74.9366 170.726H65.553C64.898 170.726 64.3739 171.251 64.3739 171.907C64.3739 172.563 64.9143 173.088 65.553 173.088Z" fill="white"/>
<path d="M77.2948 175.433H65.5694C64.9143 175.433 64.3903 175.957 64.3903 176.613C64.3903 177.269 64.9143 177.794 65.5694 177.794H77.2948C77.9499 177.794 78.4739 177.269 78.4739 176.613C78.4739 175.957 77.9335 175.433 77.2948 175.433Z" fill="white"/>
<path d="M69.4178 163.347C69.8764 163.806 70.6133 163.806 71.0718 163.347C71.5304 162.888 71.5304 162.15 71.0718 161.691L69.5489 160.166L71.0718 158.641C71.5304 158.182 71.5304 157.444 71.0718 156.984C70.6133 156.525 69.8764 156.525 69.4178 156.984L67.076 159.329C66.6175 159.789 66.6175 160.527 67.076 160.986L69.4178 163.347Z" fill="white"/>
<path d="M80.3245 160.166L78.8178 161.674C78.3593 162.134 78.3593 162.871 78.8178 163.331C79.2764 163.79 80.0133 163.79 80.4718 163.331L82.8137 160.986C83.2722 160.527 83.2722 159.789 82.8137 159.329L80.4555 156.968C79.9969 156.509 79.26 156.509 78.8015 156.968C78.3429 157.427 78.3429 158.165 78.8015 158.624L80.3245 160.166Z" fill="white"/>
<path d="M73.2499 163.56C73.8231 163.855 74.5272 163.609 74.822 163.035L77.1638 158.329C77.4586 157.755 77.213 157.05 76.6398 156.755C76.0666 156.46 75.3624 156.706 75.0677 157.28L72.7259 161.986C72.4311 162.56 72.6604 163.265 73.2499 163.56Z" fill="white"/>
<path d="M84.3203 166.036H81.9785C81.3234 166.036 80.7994 166.561 80.7994 167.217C80.7994 167.873 81.3234 168.398 81.9785 168.398H84.3203C84.9753 168.398 85.4994 167.873 85.4994 167.217C85.4994 166.561 84.9753 166.036 84.3203 166.036Z" fill="white"/>
<path d="M84.3203 170.743H79.6203C78.9652 170.743 78.4412 171.267 78.4412 171.923C78.4412 172.579 78.9652 173.104 79.6203 173.104H84.3203C84.9753 173.104 85.4994 172.579 85.4994 171.923C85.4994 171.267 84.9753 170.743 84.3203 170.743Z" fill="white"/>
<path d="M84.3203 175.433H81.9785C81.3234 175.433 80.7994 175.957 80.7994 176.613C80.7994 177.269 81.3234 177.794 81.9785 177.794H84.3203C84.9753 177.794 85.4994 177.269 85.4994 176.613C85.4994 175.957 84.9753 175.433 84.3203 175.433Z" fill="white"/>
<path d="M89.0203 149.589C89.6715 149.589 90.1994 149.06 90.1994 148.408C90.1994 147.756 89.6715 147.227 89.0203 147.227C88.3691 147.227 87.8412 147.756 87.8412 148.408C87.8412 149.06 88.3691 149.589 89.0203 149.589Z" fill="white"/>
<path d="M84.3203 149.589C84.9715 149.589 85.4994 149.06 85.4994 148.408C85.4994 147.756 84.9715 147.227 84.3203 147.227C83.6691 147.227 83.1412 147.756 83.1412 148.408C83.1412 149.06 83.6691 149.589 84.3203 149.589Z" fill="white"/>
<path d="M79.6367 149.589C80.2878 149.589 80.8158 149.06 80.8158 148.408C80.8158 147.756 80.2878 147.227 79.6367 147.227C78.9855 147.227 78.4576 147.756 78.4576 148.408C78.4576 149.06 78.9855 149.589 79.6367 149.589Z" fill="white"/>
<path d="M292.136 176.58C290.776 176.466 290.089 174.875 290.924 173.793C292.529 171.71 295.591 169.365 300.815 170.644C300.815 170.644 310.624 168.25 312.229 179.417C313.818 190.568 315.685 194.553 315.947 207.049C316.209 219.528 310.379 239.714 335.304 239.189L348.306 239.206C348.306 239.206 353.35 238.664 353.612 249.291C353.842 258.408 354.66 280.218 354.873 286.236C354.906 287.121 354.267 287.892 353.383 288.023C347.176 288.892 324.02 292.024 316.471 291.795C307.709 291.532 285.438 284.088 286.764 257.801C288.091 231.498 290.22 201.752 288.353 195.652C286.535 189.65 284.701 184.419 290.694 182.221C290.924 182.139 291.153 182.107 291.399 182.123C292.856 182.221 298.031 183.337 298.702 193.799C299.505 206.015 301.617 224.086 303.206 222.758C304.794 221.43 303.468 192.47 302.142 188.764C300.897 185.206 304.074 177.548 292.136 176.58Z" fill="#DD6B66"/>
<path d="M292.545 298.797V351.764C292.545 358.651 286.961 364.243 280.083 364.243H227.187C220.309 364.243 214.741 358.651 214.741 351.764V298.797C214.741 291.91 220.309 286.334 227.187 286.334H280.083C286.961 286.334 292.545 291.91 292.545 298.797Z" fill="#F7684E"/>
<path d="M292.545 298.797V317.819C278.969 313.146 268.963 318.606 263.706 325.28C258.45 331.954 251.85 345.286 238.225 340.022C224.616 334.775 214.741 342.171 214.741 342.171V298.797C214.741 291.91 220.309 286.334 227.187 286.334H280.083C286.961 286.334 292.545 291.91 292.545 298.797Z" fill="#FFBB4E"/>
<path d="M238.225 328.658C246.175 328.658 252.62 322.205 252.62 314.244C252.62 306.283 246.175 299.83 238.225 299.83C230.275 299.83 223.83 306.283 223.83 314.244C223.83 322.205 230.275 328.658 238.225 328.658Z" fill="white"/>
<path d="M178.107 126.73H61.9994C56.7262 126.73 52.452 122.45 52.452 117.169C52.452 111.889 56.7262 107.609 61.9994 107.609H178.091C183.364 107.609 187.638 111.889 187.638 117.169C187.638 122.466 183.364 126.73 178.107 126.73Z" fill="white"/>
<path d="M39.9405 126.73C34.6673 126.73 30.3931 122.45 30.3931 117.169C30.3931 111.889 34.6673 107.609 39.9405 107.609C45.2137 107.609 49.4879 111.889 49.4879 117.169C49.4879 122.466 45.2137 126.73 39.9405 126.73Z" fill="white"/>
<path d="M178.32 155.869H113.306C112.635 155.869 112.078 155.312 112.078 154.64C112.078 153.967 112.635 153.41 113.306 153.41H178.32C178.992 153.41 179.549 153.967 179.549 154.64C179.549 155.312 178.992 155.869 178.32 155.869Z" fill="white"/>
<path d="M156.049 148.687H112.897C112.455 148.687 112.078 148.129 112.078 147.457C112.078 146.785 112.438 146.227 112.897 146.227H156.049C156.491 146.227 156.867 146.785 156.867 147.457C156.867 148.129 156.491 148.687 156.049 148.687Z" fill="white"/>
<path d="M130.37 162.511H113.306C112.635 162.511 112.078 161.953 112.078 161.281C112.078 160.608 112.635 160.051 113.306 160.051H130.387C131.058 160.051 131.615 160.608 131.615 161.281C131.615 161.953 131.058 162.511 130.37 162.511Z" fill="white"/>
<path d="M145.224 181.434H114.305C113.077 181.434 112.078 180.877 112.078 180.204C112.078 179.532 113.077 178.975 114.305 178.975H145.224C146.452 178.975 147.451 179.532 147.451 180.204C147.451 180.877 146.452 181.434 145.224 181.434Z" fill="white"/>
<path d="M178.32 162.511H135.414C134.743 162.511 134.186 161.953 134.186 161.281C134.186 160.608 134.743 160.051 135.414 160.051H178.32C178.992 160.051 179.548 160.608 179.548 161.281C179.548 161.953 178.992 162.511 178.32 162.511Z" fill="white"/>
<path d="M178.32 169.972H113.306C112.635 169.972 112.078 169.414 112.078 168.742C112.078 168.07 112.635 167.512 113.306 167.512H178.32C178.992 167.512 179.549 168.07 179.549 168.742C179.549 169.414 178.992 169.972 178.32 169.972Z" fill="white"/>
<path d="M149.203 175.58H112.766C112.389 175.58 112.078 175.023 112.078 174.35C112.078 173.678 112.389 173.12 112.766 173.12H149.203C149.58 173.12 149.891 173.678 149.891 174.35C149.891 175.023 149.58 175.58 149.203 175.58Z" fill="white"/>
<path d="M178.697 175.58H152.773C152.495 175.58 152.282 175.023 152.282 174.35C152.282 173.678 152.495 173.12 152.773 173.12H178.697C178.975 173.12 179.188 173.678 179.188 174.35C179.188 175.023 178.959 175.58 178.697 175.58Z" fill="white"/>
<path d="M13.9513 98.7869C4.89519 98.6065 1.88195 105.035 1.88195 121.171C1.88195 137.306 1.88195 146.637 1.88195 146.637C1.88195 146.637 -3.4076 160.74 7.92481 164.511C7.92481 164.511 4.91156 174.58 13.9677 179.368C13.9677 179.368 5.43561 193.503 33.0952 206.606V193.766H25.2837C25.2837 193.766 33.0788 188.436 45.1482 185.665C57.2175 182.894 58.7241 172.825 54.4499 170.054C50.1757 167.283 36.5997 169.3 36.5997 169.3C36.5997 169.3 56.7917 159.723 56.6279 149.654C56.4642 139.586 44.9025 141.849 44.9025 141.849C44.9025 141.849 50.4377 133.535 47.6701 128.501C44.9025 123.466 29.8199 123.204 21.2551 129.501L22.0084 112.119C21.9921 112.135 21.0259 98.9344 13.9513 98.7869Z" fill="#DD6B66"/>
<path d="M74.9367 204.261H52.4684V206.442H74.9367V204.261Z" fill="#62687E"/>
<path d="M75.9192 219.79H60.0342V221.971H75.9192V219.79Z" fill="#62687E"/>
<path d="M88.791 233.696H71.5959V235.877H88.791V233.696Z" fill="#62687E"/>
<path d="M88.791 246.896H71.5959V249.077H88.791V246.896Z" fill="#62687E"/>
<path d="M88.791 260.097H71.5959V262.278H88.791V260.097Z" fill="#62687E"/>
<path d="M88.791 273.298H71.5959V275.479H88.791V273.298Z" fill="#62687E"/>
<path d="M88.791 286.498H71.5959V288.679H88.791V286.498Z" fill="#62687E"/>
<path d="M55.3997 298.928H47.5063V306.832H55.3997V298.928Z" fill="#62687E"/>
<path d="M82.5025 301.781H60.0342V303.962H82.5025V301.781Z" fill="#62687E"/>
<path d="M55.3997 311.161H47.5063V319.065H55.3997V311.161Z" fill="#62687E"/>
<path d="M82.5025 314.015H60.0342V316.196H82.5025V314.015Z" fill="#62687E"/>
<path d="M3.25755 147.129C3.11017 147.129 2.96278 147.08 2.83177 146.982C2.50424 146.736 2.43874 146.244 2.66801 145.899C3.01191 145.391 11.3311 133.502 20.2234 129.567C20.6001 129.403 21.0258 129.583 21.1732 129.976C21.3206 130.37 21.1569 130.813 20.7802 130.977C12.2645 134.732 3.92898 146.67 3.8471 146.785C3.71609 147.014 3.48682 147.129 3.25755 147.129Z" fill="#FBA795"/>
<path d="M7.90843 165.348C7.71191 165.348 7.49902 165.266 7.33526 165.118C7.00773 164.806 6.99136 164.282 7.30251 163.954C8.17045 163.035 28.8373 141.537 44.837 141.029C45.2955 140.963 45.6722 141.373 45.6886 141.816C45.7049 142.275 45.3447 142.652 44.9025 142.669C29.5743 143.161 8.71087 164.856 8.49797 165.085C8.33421 165.266 8.12132 165.348 7.90843 165.348Z" fill="#FBA795"/>
<path d="M13.9513 180.204C13.7384 180.204 13.5255 180.122 13.3617 179.958C13.0506 179.631 13.0506 179.122 13.3781 178.794C13.7056 178.483 21.5335 171.038 36.4523 168.496C36.8945 168.414 37.3203 168.726 37.4022 169.168C37.484 169.611 37.1729 170.038 36.7307 170.12C22.3523 172.563 14.6063 179.893 14.5245 179.975C14.3607 180.122 14.1478 180.204 13.9513 180.204Z" fill="#FBA795"/>
<path d="M202.377 56.4628C202.115 56.4628 201.869 56.3973 201.624 56.2825C200.838 55.8725 200.51 54.905 200.903 54.1015C201.051 53.8063 204.604 47.001 216.33 51.3466C217.181 51.6581 217.607 52.6092 217.296 53.4456C216.985 54.2983 216.051 54.7246 215.183 54.4131C206.356 51.1334 203.916 55.397 203.818 55.5773C203.54 56.1513 202.967 56.4628 202.377 56.4628Z" fill="#35174D"/>
<path d="M190.357 58.2339C189.849 58.2339 189.342 57.9879 189.014 57.5451C184.969 51.7729 179.679 54.3475 179.09 54.659C178.304 55.0854 177.305 54.7902 176.879 53.9867C176.453 53.1996 176.748 52.1993 177.534 51.7729C180.4 50.2151 187.032 49.018 191.683 55.6593C192.207 56.3973 192.027 57.4304 191.29 57.9387C191.012 58.1355 190.684 58.2339 190.357 58.2339Z" fill="#35174D"/>
<path d="M201.1 79.0433C201.083 79.0433 201.067 79.0433 201.051 79.0433C200.281 78.9941 196.416 78.6826 195.384 76.7968C195.122 76.3212 194.926 75.5341 195.499 74.5174C196.973 71.8773 196.76 62.4482 193.485 60.4804C193.092 60.2509 192.977 59.7425 193.206 59.3489C193.436 58.9554 193.943 58.8406 194.336 59.0702C198.594 61.6283 198.807 71.9592 196.94 75.3209C196.694 75.7637 196.793 75.944 196.842 76.026C197.284 76.8295 199.691 77.3379 201.165 77.4199C201.624 77.4527 201.968 77.8298 201.935 78.289C201.886 78.7153 201.525 79.0433 201.1 79.0433Z" fill="#F39695"/>
<path d="M202.148 84.258C200.084 84.258 198.561 83.766 198.529 83.766C198.103 83.6184 197.857 83.1593 198.005 82.7329C198.152 82.3066 198.61 82.0606 199.036 82.2082C199.298 82.2902 205.57 84.258 208.977 79.2565C209.239 78.8793 209.746 78.7973 210.123 79.0433C210.5 79.3057 210.598 79.814 210.336 80.1912C208.043 83.5201 204.702 84.258 202.148 84.258Z" fill="#F39695"/>
<path d="M189.276 70.1882C188.146 70.1882 187.147 69.0075 186.852 67.3021C186.541 65.4655 187.229 63.9241 188.457 63.7109C189.112 63.5961 189.784 63.9077 190.308 64.5472C190.717 65.0719 191.028 65.7771 191.159 66.5642C191.47 68.4008 190.783 69.9422 189.554 70.1554C189.456 70.1718 189.358 70.1882 189.276 70.1882ZM188.719 65.3343C188.605 65.3999 188.293 66.0231 188.474 67.0233C188.637 68.0236 189.129 68.5156 189.292 68.532C189.407 68.4664 189.718 67.8433 189.538 66.843C189.358 65.8427 188.867 65.3507 188.719 65.3343Z" fill="#35164B"/>
<path d="M209.927 68.2696C208.797 68.2696 207.798 67.0889 207.503 65.3835C207.192 63.5469 207.88 62.0055 209.108 61.7923C209.763 61.6939 210.434 61.9891 210.958 62.6286C211.368 63.1534 211.679 63.8585 211.81 64.6456C212.121 66.4822 211.433 68.0237 210.205 68.2368C210.107 68.2532 210.008 68.2696 209.927 68.2696ZM209.37 63.4157C209.255 63.4813 208.944 64.1045 209.124 65.1048C209.288 66.1051 209.779 66.597 209.943 66.6134C210.058 66.5478 210.369 65.9247 210.189 64.9244C210.008 63.9241 209.517 63.4321 209.37 63.4157Z" fill="#35164B"/>
<path d="M210.189 76.7304C203.491 76.7304 198.021 71.2697 198.021 64.5464C198.021 57.8395 203.474 56.5769 210.189 56.5769C216.903 56.5769 222.356 57.8231 222.356 64.5464C222.356 71.2533 216.903 76.7304 210.189 76.7304ZM210.352 58.343C204.555 58.343 199.659 58.725 199.659 64.5464C199.659 70.3678 204.375 75.0905 210.189 75.0905C216.002 75.0905 220.719 70.3678 220.719 64.5464C220.719 58.725 216.166 58.343 210.352 58.343Z" fill="white"/>
<path d="M182.84 78.6612C176.142 78.6612 172 73.5663 172 66.843C172 60.1361 176.415 58.5356 183.129 58.5356C189.827 58.5356 194.991 59.754 194.991 66.4773C194.991 73.2006 189.537 78.6612 182.84 78.6612ZM182.84 60.3279C177.042 60.3279 173.5 60.9724 173.5 66.7938C173.5 72.6152 177.026 77.0378 182.84 77.0378C188.653 77.0378 193.353 72.3151 193.353 66.4937C193.353 60.6723 188.637 60.3279 182.84 60.3279Z" fill="white"/>
<path d="M198.724 65.0366L193.282 65.3883L193.387 67.0247L198.829 66.673L198.724 65.0366Z" fill="white"/>
<path d="M233.113 43.598L220.483 61.0647L221.81 62.0265L234.44 44.5598L233.113 43.598Z" fill="white"/>
<path d="M238.29 60.5952C238.127 60.5952 237.963 60.546 237.815 60.4476C237.439 60.1853 237.357 59.6769 237.603 59.2998C239.207 56.9876 239.797 54.8886 239.371 53.052C238.831 50.707 236.751 49.5428 236.735 49.5428C236.342 49.3296 236.194 48.8212 236.407 48.4277C236.62 48.0341 237.111 47.8865 237.521 48.0997C237.635 48.1653 240.239 49.6084 240.96 52.6584C241.516 54.9706 240.829 57.5287 238.945 60.2509C238.814 60.464 238.552 60.5952 238.29 60.5952Z" fill="#DD6B66"/>
<path d="M236.44 55.6593H236.423C235.965 55.6429 235.621 55.2658 235.621 54.823C235.621 54.577 235.719 52.4617 237.078 51.5597C237.57 51.2318 238.421 50.953 239.65 51.445C240.075 51.6089 240.272 52.0845 240.108 52.5109C239.944 52.9372 239.453 53.134 239.044 52.97C238.585 52.7896 238.225 52.7732 237.979 52.9372C237.455 53.2816 237.275 54.3967 237.259 54.8722C237.242 55.315 236.882 55.6593 236.44 55.6593Z" fill="#DD6B66"/>
</svg>
