<svg width="164" height="45" viewBox="0 0 164 45" fill="none" xmlns="http://www.w3.org/2000/svg">
<path d="M2.988 37H14.292C17.028 37 19.188 36.292 20.772 34.876C22.356 33.46 23.148 31.516 23.148 29.044C23.148 27.7 22.824 26.464 22.176 25.336C21.552 24.208 20.604 23.284 19.332 22.564C21.156 21.292 22.068 19.504 22.068 17.2C22.068 15.064 21.36 13.36 19.944 12.088C18.552 10.816 16.656 10.18 14.256 10.18H2.988V37ZM6.516 21.196V13.384H14.184C15.48 13.384 16.524 13.72 17.316 14.392C18.108 15.04 18.504 15.964 18.504 17.164C18.504 18.34 18.108 19.312 17.316 20.08C16.524 20.824 15.48 21.196 14.184 21.196H6.516ZM6.516 33.76V24.364H14.436C15.996 24.364 17.244 24.796 18.18 25.66C19.116 26.524 19.584 27.664 19.584 29.08C19.584 30.52 19.116 31.66 18.18 32.5C17.244 33.34 15.996 33.76 14.436 33.76H6.516ZM27.5178 37H30.8658V10.18H27.5178V37ZM41.7488 37.432C43.1648 37.432 44.4368 37.168 45.5648 36.64C46.6928 36.088 47.6048 35.368 48.3008 34.48V37H51.5768V23.824C51.5768 22.504 51.2528 21.352 50.6048 20.368C49.9808 19.36 49.1048 18.58 47.9768 18.028C46.8488 17.452 45.5408 17.164 44.0527 17.164C42.9008 17.164 41.7968 17.368 40.7408 17.776C39.6848 18.184 38.7608 18.748 37.9688 19.468C37.1768 20.164 36.6008 20.956 36.2408 21.844L39.1568 23.356C39.5648 22.444 40.1888 21.7 41.0288 21.124C41.8688 20.548 42.8528 20.26 43.9808 20.26C45.2528 20.26 46.2728 20.596 47.0408 21.268C47.8328 21.916 48.2288 22.768 48.2288 23.824V24.724L41.6048 25.804C39.4208 26.164 37.8128 26.896 36.7808 28C35.7728 29.08 35.2688 30.388 35.2688 31.924C35.2688 33.556 35.8688 34.888 37.0688 35.92C38.2928 36.928 39.8528 37.432 41.7488 37.432ZM38.7968 31.816C38.7968 30.976 39.0728 30.268 39.6248 29.692C40.2008 29.116 41.1128 28.72 42.3608 28.504L48.2288 27.532V28.756C48.2288 29.836 47.9768 30.82 47.4728 31.708C46.9688 32.596 46.2608 33.304 45.3488 33.832C44.4368 34.336 43.3688 34.588 42.1448 34.588C41.1848 34.588 40.3808 34.324 39.7328 33.796C39.1088 33.268 38.7968 32.608 38.7968 31.816ZM65.7678 37.432C67.0398 37.432 68.2278 37.204 69.3318 36.748C70.4598 36.292 71.4318 35.668 72.2478 34.876C73.0638 34.084 73.6758 33.196 74.0838 32.212L71.0958 30.7C70.6398 31.756 69.9438 32.608 69.0078 33.256C68.0958 33.88 67.0158 34.192 65.7678 34.192C64.5918 34.192 63.5238 33.892 62.5638 33.292C61.6278 32.692 60.8838 31.876 60.3318 30.844C59.7798 29.788 59.5038 28.612 59.5038 27.316C59.5038 25.972 59.7798 24.784 60.3318 23.752C60.8838 22.72 61.6278 21.904 62.5638 21.304C63.5238 20.704 64.5918 20.404 65.7678 20.404C66.9918 20.404 68.0718 20.728 69.0078 21.376C69.9438 22 70.6398 22.816 71.0958 23.824L74.0838 22.384C73.6758 21.376 73.0518 20.476 72.2118 19.684C71.3958 18.892 70.4358 18.28 69.3318 17.848C68.2278 17.392 67.0398 17.164 65.7678 17.164C63.8718 17.164 62.1798 17.608 60.6918 18.496C59.2278 19.36 58.0758 20.56 57.2358 22.096C56.3958 23.608 55.9758 25.336 55.9758 27.28C55.9758 29.2 56.3958 30.928 57.2358 32.464C58.0758 34 59.2278 35.212 60.6918 36.1C62.1798 36.988 63.8718 37.432 65.7678 37.432ZM78.4592 37H81.8072V31.168L85.1192 27.676L91.5632 37H95.5232L87.5672 25.408L95.0192 17.596H90.7352L81.8072 26.704V9.892H78.4592V37ZM99.5774 44.92C100.849 44.92 101.929 44.668 102.817 44.164C103.729 43.66 104.497 42.976 105.121 42.112C105.769 41.272 106.297 40.336 106.705 39.304L115.453 17.596H111.745L105.877 32.752L99.9734 17.596H96.3374L104.041 37.036L103.465 38.44C102.937 39.64 102.373 40.492 101.773 40.996C101.197 41.5 100.345 41.752 99.2174 41.752C98.8334 41.752 98.4374 41.716 98.0294 41.644C97.6454 41.596 97.3214 41.548 97.0574 41.5V44.488C97.4414 44.656 97.8494 44.764 98.2814 44.812C98.7134 44.884 99.1454 44.92 99.5774 44.92Z" fill="#EFF0F3"/>
<path d="M118.214 37H120.59V34.48H118.214V37ZM124.099 37H129.751C131.251 37 132.421 36.64 133.261 35.92C134.113 35.188 134.539 34.18 134.539 32.896C134.539 32.284 134.419 31.708 134.179 31.168C133.939 30.628 133.519 30.166 132.919 29.782C133.291 29.446 133.561 29.074 133.729 28.666C133.909 28.258 133.999 27.826 133.999 27.37C133.999 26.194 133.621 25.27 132.865 24.598C132.109 23.926 131.071 23.59 129.751 23.59H124.099V37ZM126.547 28.792V25.678H129.877C130.381 25.678 130.783 25.816 131.083 26.092C131.383 26.368 131.533 26.74 131.533 27.208C131.533 27.676 131.383 28.06 131.083 28.36C130.783 28.648 130.381 28.792 129.877 28.792H126.547ZM126.547 34.84V30.934H130.003C130.639 30.934 131.143 31.114 131.515 31.474C131.899 31.822 132.091 32.296 132.091 32.896C132.091 33.484 131.899 33.958 131.515 34.318C131.143 34.666 130.639 34.84 130.003 34.84H126.547ZM136.346 37H138.704V23.374H136.346V37ZM145.669 37.216C146.617 37.216 147.481 37 148.261 36.568C149.041 36.124 149.665 35.518 150.133 34.75C150.601 33.97 150.835 33.088 150.835 32.104C150.835 31.12 150.601 30.244 150.133 29.476C149.677 28.708 149.059 28.102 148.279 27.658C147.499 27.214 146.629 26.992 145.669 26.992C144.697 26.992 143.821 27.214 143.041 27.658C142.261 28.102 141.637 28.708 141.169 29.476C140.713 30.244 140.485 31.12 140.485 32.104C140.485 33.088 140.713 33.964 141.169 34.732C141.637 35.5 142.261 36.106 143.041 36.55C143.833 36.994 144.709 37.216 145.669 37.216ZM145.669 35.056C145.141 35.056 144.667 34.93 144.247 34.678C143.839 34.426 143.515 34.078 143.275 33.634C143.047 33.178 142.933 32.668 142.933 32.104C142.933 31.54 143.047 31.036 143.275 30.592C143.515 30.148 143.839 29.8 144.247 29.548C144.667 29.284 145.141 29.152 145.669 29.152C146.197 29.152 146.659 29.284 147.055 29.548C147.463 29.8 147.781 30.148 148.009 30.592C148.249 31.036 148.369 31.54 148.369 32.104C148.369 32.668 148.249 33.178 148.009 33.634C147.781 34.078 147.463 34.426 147.055 34.678C146.659 34.93 146.197 35.056 145.669 35.056ZM157.375 40.96C158.311 40.96 159.139 40.768 159.859 40.384C160.579 40 161.143 39.472 161.551 38.8C161.959 38.128 162.163 37.366 162.163 36.514V27.208H159.931V28.342C159.187 27.442 158.185 26.992 156.925 26.992C156.025 26.992 155.221 27.202 154.513 27.622C153.805 28.03 153.247 28.594 152.839 29.314C152.431 30.034 152.227 30.856 152.227 31.78C152.227 32.692 152.431 33.514 152.839 34.246C153.247 34.978 153.811 35.554 154.531 35.974C155.251 36.394 156.067 36.604 156.979 36.604C158.167 36.604 159.109 36.22 159.805 35.452V36.514C159.805 37.234 159.577 37.792 159.121 38.188C158.665 38.596 158.083 38.8 157.375 38.8C156.751 38.8 156.223 38.656 155.791 38.368C155.371 38.092 155.089 37.726 154.945 37.27L152.749 38.098C153.061 38.962 153.631 39.652 154.459 40.168C155.299 40.696 156.271 40.96 157.375 40.96ZM157.267 34.426C156.511 34.426 155.887 34.18 155.395 33.688C154.915 33.184 154.675 32.554 154.675 31.798C154.675 31.294 154.783 30.844 154.999 30.448C155.227 30.04 155.539 29.722 155.935 29.494C156.331 29.266 156.775 29.152 157.267 29.152C158.011 29.152 158.617 29.404 159.085 29.908C159.565 30.4 159.805 31.03 159.805 31.798C159.805 32.566 159.565 33.196 159.085 33.688C158.617 34.18 158.011 34.426 157.267 34.426Z" fill="#6246EA"/>
</svg>
